<?xml version="1.0" encoding="UTF-8"?><svg id="Layer_1" xmlns="http://www.w3.org/2000/svg" viewBox="0 0 211.457 98.617"><path d="M7.738,98.599l-5.329-16.356c-.793-2.465-1.417-3.543-2.409-4.562v-.058h5.924v.058c-.51.85-.737,2.607-.057,4.704l3.656,11.479,4.394-11.026-.226-.596c-.879-2.465-1.418-3.543-2.41-4.562v-.058h5.925v.058c-.483.792-.795,2.607-.057,4.704l3.968,11.253,3.231-9.864c1.077-3.289.539-5.16-.057-6.094v-.058h3.743v.058c-1.333,1.416-1.985,2.749-2.778,5.158l-5.131,15.76h-.567l-5.357-14.938-5.896,14.938h-.567Z" fill="#131313"/><path d="M34.111,98.617h-3.827v-.055c1.36-1.418,1.871-2.694,2.693-4.875l6.094-16.044h.567l6.208,16.355c.935,2.467,1.588,3.544,2.58,4.565v.055h-5.641v-.055c.482-.823.482-2.609-.312-4.707l-1.162-3.06h-6.662l-.595,1.587c-1.276,3.316-.539,5.244.057,6.18v.055ZM37.995,82.036l-3.119,8.191h6.208l-3.089-8.191Z" fill="#131313"/><path d="M56.795,98.599v-.056c.916-1.775,1.145-2.777,1.145-5.126v-10.593c0-2.376-.23-3.35-1.145-5.124v-.058h5.582v.058c-.945,1.774-1.144,2.748-1.144,5.124v15.375l4.323-.171c2.377-.114,4.582-2.749,6.184-5.182l.23.085-1.26,5.669h-13.915Z" fill="#131313"/><path d="M79.453,98.599v-.056c.916-1.775,1.145-2.777,1.145-5.126v-10.593c0-2.376-.23-3.35-1.145-5.124v-.058h5.582v.058c-.945,1.774-1.144,2.748-1.144,5.124v15.375l4.323-.171c2.377-.114,4.582-2.749,6.184-5.182l.23.085-1.26,5.669h-13.915Z" fill="#131313"/><path d="M102.023,98.543c.945-1.775,1.145-2.749,1.145-5.126v-10.593c0-2.376-.201-3.35-1.145-5.124v-.058h5.582v.058c-.945,1.774-1.144,2.748-1.144,5.124v10.593c0,2.377.199,3.351,1.144,5.126v.056h-5.582v-.056Z" fill="#131313"/><path d="M128.452,98.599h-5.583v-.056c.917-1.775,1.145-2.777,1.145-5.126v-15.289l-3.121.114c-1.26.058-3.35,3.322-4.838,5.384l-.229-.086,1.087-5.898h17.495l1.087,5.898-.229.086c-1.488-2.062-3.578-5.326-4.838-5.384l-3.121-.114v15.289c0,2.377.201,3.351,1.145,5.126v.056Z" fill="#131313"/><path d="M144.705,91.501v-8.781c0-2.328-.195-3.282-1.121-5.021v-.057h5.47v.057c-.758,1.43-1.122,2.693-1.122,5.021v8.698c0,4.797,2.104,6.48,5.219,6.48,4.181,0,5.668-3.199,5.668-6.733v-7.94c0-2.525-.366-3.562-2.021-5.526v-.057h4.545l.141.057c-1.628,1.964-2.021,3.001-2.021,5.526v7.911c0,4.013-1.74,7.463-7.097,7.463-4.152,0-7.66-2.048-7.66-7.099Z" fill="#131313"/><path d="M168.801,98.544c.911-1.509,1.139-2.336,1.139-4.329v-12.074c0-1.993-.229-2.818-1.139-4.327v-.058c3.559,0,4.043-.114,7.803-.114,7.09,0,11.389,3.702,11.389,10.451s-4.1,10.507-11.389,10.507h-7.803v-.056ZM173.215,78.211v19.904l3.16-.085c5.837-.143,8.002-3.361,8.002-9.539,0-7.033-2.648-10.28-8.03-10.28h-3.132Z" fill="#131313"/><path d="M210.21,98.391h-14.513v-.055c.737-1.73,1.105-2.836,1.105-4.735v-11.168c0-1.928-.368-3.005-1.105-4.733v-.058h13.095l1.106,5.046-.228.084c-1.502-1.559-3.543-4.449-4.79-4.507l-4.79-.197v9.58h2.438c1.36,0,2.551-1.9,3.514-2.976h.255v6.407h-.255c-.935-.992-2.126-2.864-3.514-2.864h-2.438v9.752l5.045-.2c2.325-.113,4.478-2.863,6.094-5.073l.228.084-1.247,5.612Z" fill="#131313"/><polygon points="83.501 54.715 73.502 54.715 73.502 0 128.217 0 128.217 10.324 125.12 10.324 125.12 3.097 76.598 3.097 76.598 51.618 83.501 51.618 83.501 54.715" fill="#c2a55f"/><path d="M137.955,64.333h-54.715V9.618h54.715v54.715ZM86.337,61.237h48.522V12.715h-48.522v48.521Z" fill="#131313"/></svg>
